<?xml version="1.0" encoding="utf-8"?>
<!-- Generator: Adobe Illustrator 16.0.0, SVG Export Plug-In . SVG Version: 6.00 Build 0)  -->
<!DOCTYPE svg PUBLIC "-//W3C//DTD SVG 1.1//EN" "http://www.w3.org/Graphics/SVG/1.1/DTD/svg11.dtd">
<svg version="1.1" id="Calque_1" xmlns="http://www.w3.org/2000/svg" xmlns:xlink="http://www.w3.org/1999/xlink" x="0px" y="0px"
	 width="512px" height="512px" viewBox="0 0 512 512" enable-background="new 0 0 512 512" xml:space="preserve">
<g>
	<path fill-rule="evenodd" clip-rule="evenodd" fill="#0559C9" d="M256.118,410.353c-49.571,0.004-99.136,0.021-148.7,0.003
		c-47.008-0.009-87.061-31.322-98.45-76.95C-5.551,275.237,34.833,216.831,94.48,209.732c1.714-0.201,3.497-0.875,5.128-0.603
		c8.965,1.502,12.395-2.863,15.688-10.983c23.881-58.851,79.777-96.397,142.355-96.511c64.994-0.116,123.189,40.448,145.326,101.576
		c1.56,4.298,3.443,5.643,8.014,5.884c52.243,2.738,93.444,45.566,94.967,98.389c1.493,51.583-37.814,96.365-89.659,102.079
		c-4.384,0.484-8.807,0.745-13.218,0.749C354.096,410.371,305.108,410.349,256.118,410.353z M148.579,387.361
		c6.258-23.411,12.384-46.326,18.82-70.408c0.79,1.773,0.997,2.097,1.094,2.463c4.816,17.971,9.65,35.938,14.424,53.917
		c3.734,14.061,3.708,13.772,18.027,14.19c5.245,0.152,6.782-1.926,7.854-6.475c5.532-23.529,11.368-46.98,17.054-70.472
		c1.466-6.06,2.76-12.161,4.277-18.899c-5.633,0-10.416,0.128-15.188-0.049c-3.049-0.125-4.393,0.953-4.992,4.033
		c-1.731,8.855-3.803,17.628-5.75,26.44c-2.446,11.065-4.904,22.139-7.354,33.213c-1.391-0.884-1.759-1.703-1.977-2.554
		c-3.713-14.688-7.365-29.392-11.132-44.069c-1.42-5.53-1.483-13.091-5.122-15.913c-3.661-2.837-11.021-0.666-16.718-1.185
		c-4.364-0.394-5.917,1.401-6.923,5.435c-3.759,15.078-7.886,30.061-11.903,45.066c-1.155,4.325-2.401,8.621-3.604,12.926
		c-0.302-0.042-0.6-0.084-0.897-0.119c-4.618-20.941-9.241-41.885-13.884-62.927c-6.676,0-12.946,0-19.142,0
		c-0.116,0.496-0.23,0.698-0.193,0.872c7.181,30.405,14.328,60.836,21.709,91.193c0.332,1.369,2.72,3.066,4.246,3.171
		C136.836,387.597,142.409,387.361,148.579,387.361z M266.491,131.214c-50.43-0.042-87.977,19.668-111.198,53.515
		c-1.189,1.733-2.4,3.517-3.18,5.448c-1.559,3.858-0.513,7.279,2.82,9.678c3.578,2.574,7.295,2.206,10.52-0.715
		c1.391-1.261,2.356-3.01,3.437-4.591c35.642-52.031,108.096-62.48,156.453-22.064c8.28,6.919,14.804,15.977,21.832,24.304
		c3.903,4.621,8.173,6.083,12.389,3.249c4.161-2.801,4.747-7.474,1.562-12.672c-0.7-1.145-1.458-2.263-2.243-3.349
		C333.846,149.336,299.742,132.139,266.491,131.214z M289.804,291.888c0,32.123,0,63.642,0,95.165c6.384,0,12.256,0,18.865,0
		c0-13.427,0-26.562,0-40.512c13.603,0,26.498,0,39.342,0c0-5.731,0-10.624,0-16.131c-13.187,0-25.959,0-38.92,0
		c0-7.777,0-14.938,0-22.639c15.325,0,30.213,0,45.361,0c0-5.585,0-10.622,0-15.884
		C332.751,291.888,311.487,291.888,289.804,291.888z M257.604,171.398c-32.143,0.92-57.49,14.123-75.805,40.458
		c-3.661,5.26-3.087,10.338,1.153,13.185c4.305,2.888,8.957,1.54,12.667-3.679c31.475-44.25,91.92-44.319,123.352-0.135
		c3.73,5.25,8.398,6.69,12.63,3.896c4.484-2.944,4.921-7.909,1.007-13.549C314.41,185.37,289.139,172.434,257.604,171.398z
		 M372.911,291.949c0,32.015,0,63.549,0,94.942c6.526,0,12.548,0,18.597,0c0-31.87,0-63.261,0-94.942
		C385.216,291.949,379.33,291.949,372.911,291.949z M266.127,387.082c0-31.977,0-63.489,0-95.149c-6.353,0-12.228,0-18.477,0
		c0,31.799,0,63.333,0,95.149C253.88,387.082,259.758,387.082,266.127,387.082z M262.265,213.104
		c-23.888-0.018-42.955,10.279-51.42,25.123c-2.651,4.657-2.013,9.107,1.696,11.769c3.94,2.829,8.671,1.921,12.081-2.338
		c0.476-0.595,0.887-1.249,1.349-1.861c16.24-21.583,46.961-21.397,62.998,0.373c4.109,5.583,8.795,6.981,13.042,3.897
		c4.421-3.206,4.761-7.932,0.578-13.625C291.409,221.205,276.308,213.426,262.265,213.104z M271.224,263.14
		c-0.089-7.558-6.679-13.97-14.141-13.748c-7.605,0.232-13.883,6.755-13.705,14.241c0.18,7.571,6.713,13.893,14.195,13.738
		C265.188,277.203,271.302,270.834,271.224,263.14z"/>
	<path fill-rule="evenodd" clip-rule="evenodd" fill="#FFFFFF" d="M148.579,387.361c-6.17,0-11.743,0.235-17.274-0.149
		c-1.526-0.104-3.914-1.802-4.246-3.171c-7.381-30.357-14.528-60.788-21.709-91.193c-0.037-0.174,0.077-0.376,0.193-0.872
		c6.195,0,12.466,0,19.142,0c4.643,21.042,9.266,41.985,13.884,62.927c0.298,0.035,0.596,0.077,0.897,0.119
		c1.203-4.305,2.449-8.601,3.604-12.926c4.018-15.006,8.145-29.988,11.903-45.066c1.006-4.033,2.559-5.828,6.923-5.435
		c5.697,0.519,13.057-1.652,16.718,1.185c3.639,2.822,3.702,10.383,5.122,15.913c3.767,14.678,7.419,29.381,11.132,44.069
		c0.218,0.851,0.586,1.67,1.977,2.554c2.45-11.074,4.908-22.147,7.354-33.213c1.947-8.813,4.019-17.585,5.75-26.44
		c0.6-3.08,1.943-4.158,4.992-4.033c4.772,0.177,9.556,0.049,15.188,0.049c-1.518,6.738-2.812,12.84-4.277,18.899
		c-5.686,23.491-11.521,46.942-17.054,70.472c-1.072,4.549-2.609,6.627-7.854,6.475c-14.319-0.418-14.293-0.13-18.027-14.19
		c-4.773-17.979-9.607-35.946-14.424-53.917c-0.097-0.366-0.304-0.689-1.094-2.463C160.963,341.035,154.837,363.95,148.579,387.361z
		"/>
	<path fill-rule="evenodd" clip-rule="evenodd" fill="#FFFFFF" d="M266.491,131.214c33.251,0.924,67.354,18.122,92.391,52.803
		c0.785,1.086,1.543,2.205,2.243,3.349c3.186,5.198,2.6,9.871-1.562,12.672c-4.216,2.834-8.485,1.372-12.389-3.249
		c-7.028-8.327-13.552-17.385-21.832-24.304c-48.357-40.416-120.812-29.966-156.453,22.064c-1.08,1.581-2.046,3.33-3.437,4.591
		c-3.225,2.92-6.941,3.289-10.52,0.715c-3.333-2.398-4.379-5.82-2.82-9.678c0.779-1.931,1.99-3.715,3.18-5.448
		C178.515,150.882,216.062,131.172,266.491,131.214z"/>
	<path fill-rule="evenodd" clip-rule="evenodd" fill="#FFFFFF" d="M289.804,291.888c21.684,0,42.947,0,64.648,0
		c0,5.262,0,10.299,0,15.884c-15.148,0-30.036,0-45.361,0c0,7.701,0,14.861,0,22.639c12.961,0,25.733,0,38.92,0
		c0,5.507,0,10.399,0,16.131c-12.844,0-25.739,0-39.342,0c0,13.95,0,27.085,0,40.512c-6.609,0-12.481,0-18.865,0
		C289.804,355.529,289.804,324.011,289.804,291.888z"/>
	<path fill-rule="evenodd" clip-rule="evenodd" fill="#FFFFFF" d="M257.604,171.398c31.534,1.036,56.806,13.972,75.004,40.176
		c3.914,5.641,3.478,10.605-1.007,13.549c-4.231,2.794-8.899,1.354-12.63-3.896c-31.432-44.184-91.877-44.115-123.352,0.135
		c-3.71,5.219-8.362,6.567-12.667,3.679c-4.24-2.847-4.814-7.925-1.153-13.185C200.114,185.521,225.462,172.318,257.604,171.398z"/>
	<path fill-rule="evenodd" clip-rule="evenodd" fill="#FFFFFF" d="M372.911,291.949c6.419,0,12.305,0,18.597,0
		c0,31.682,0,63.072,0,94.942c-6.049,0-12.07,0-18.597,0C372.911,355.498,372.911,323.964,372.911,291.949z"/>
	<path fill-rule="evenodd" clip-rule="evenodd" fill="#FFFFFF" d="M266.127,387.082c-6.369,0-12.247,0-18.477,0
		c0-31.816,0-63.351,0-95.149c6.249,0,12.124,0,18.477,0C266.127,323.593,266.127,355.105,266.127,387.082z"/>
	<path fill-rule="evenodd" clip-rule="evenodd" fill="#FFFFFF" d="M262.265,213.104c14.043,0.321,29.145,8.1,40.324,23.337
		c4.183,5.693,3.843,10.419-0.578,13.625c-4.247,3.083-8.933,1.686-13.042-3.897c-16.037-21.77-46.758-21.956-62.998-0.373
		c-0.462,0.612-0.873,1.266-1.349,1.861c-3.41,4.259-8.141,5.167-12.081,2.338c-3.709-2.661-4.348-7.111-1.696-11.769
		C219.31,223.383,238.377,213.087,262.265,213.104z"/>
	<path fill-rule="evenodd" clip-rule="evenodd" fill="#FFFFFF" d="M271.224,263.14c0.078,7.694-6.035,14.063-13.65,14.231
		c-7.482,0.154-14.016-6.167-14.195-13.738c-0.178-7.485,6.1-14.009,13.705-14.241C264.545,249.17,271.135,255.582,271.224,263.14z"
		/>
</g>
</svg>

