<!DOCTYPE svg PUBLIC "-//W3C//DTD SVG 1.1//EN" "http://www.w3.org/Graphics/SVG/1.1/DTD/svg11.dtd">
<svg version="1.1" id="Calque_1" xmlns="http://www.w3.org/2000/svg" xmlns:xlink="http://www.w3.org/1999/xlink" x="0px" y="0px"
	 width="512px" height="512px" viewBox="0 0 512 512" enable-background="new 0 0 512 512" xml:space="preserve">
<g>
	<path fill-rule="evenodd" clip-rule="evenodd" fill="#000E9C" d="M501,384.289c-163.368,0-326.705,0-490,0
		c0-85.561,0-171.09,0-256.579c163.369,0,326.697,0,490,0C501,213.272,501,298.794,501,384.289z M489.052,140.369
		c-40.53,0-80.353,0-121.224,0c20.723,15.007,27.292,35.908,29.851,59.689c-19.646,1.385-38.798,2.732-57.973,4.08
		c-0.834-3.326-1.448-6.012-2.205-8.652c-4.76-16.743-15.227-23.962-32.403-22.41c-9.24,0.836-16.465,7.256-17.562,15.616
		c-1.136,8.625,2.931,14.835,12.297,18.527c2.908,1.146,5.9,2.05,8.889,2.994c15.41,4.92,31.071,9.153,46.182,14.871
		c23.843,9.026,41.718,24.607,46.984,50.72c2.032,10.118,2.676,20.971,1.53,31.218c-2.895,25.864-14.723,46.824-37.661,60.508
		c-2.44,1.45-5.025,2.655-8.788,4.641c44.935,0,88.423,0,132.083,0C489.052,294.697,489.052,217.697,489.052,140.369z
		 M177.066,228.699c15.238,24.917,30.265,49.501,45.292,74.085c0.265-0.137,0.529-0.273,0.794-0.41
		c-0.173-2.503-0.354-5.021-0.573-8.137c19.708-1.454,39.063-2.907,58.24-4.32c1.63,6.611,2.634,12.627,4.6,18.294
		c6.043,17.463,21.306,25.797,39.343,21.903c9.583-2.084,17.14-9.793,18.964-19.372c1.853-9.678-2.118-19.62-10.602-24.885
		c-4.34-2.687-9.129-4.788-13.946-6.543c-15.703-5.702-31.94-10.143-47.189-16.859c-29.417-12.983-43.451-36.339-41.781-68.108
		c0.448-8.475,3.036-16.84,4.706-25.577C215.754,188.622,196.611,208.455,177.066,228.699z M173.198,372.315
		c-16.011-31.238-31.537-61.523-47.298-92.256c-8.406,8.778-15.505,17.677-24.077,24.802c-11.961,9.938-16.601,21.611-14.812,36.979
		c1.154,9.943,0.217,20.115,0.217,30.476C115.958,372.315,144.046,372.315,173.198,372.315z M87.665,140.222
		c0,29.259,0,58.148,0,88.074c25.4-29.648,50.099-58.492,75.448-88.074C137.352,140.222,112.775,140.222,87.665,140.222z"/>
	<path fill-rule="evenodd" clip-rule="evenodd" fill="#FFFFFF" d="M489.052,140.369c0,77.329,0,154.329,0,231.8
		c-43.66,0-87.148,0-132.083,0c3.763-1.985,6.348-3.19,8.788-4.641c22.938-13.684,34.767-34.644,37.661-60.508
		c1.146-10.247,0.502-21.1-1.53-31.218c-5.267-26.112-23.142-41.694-46.984-50.72c-15.11-5.717-30.771-9.95-46.182-14.871
		c-2.988-0.944-5.98-1.848-8.889-2.994c-9.366-3.692-13.433-9.902-12.297-18.527c1.097-8.36,8.321-14.78,17.562-15.616
		c17.177-1.552,27.644,5.667,32.403,22.41c0.757,2.641,1.371,5.326,2.205,8.652c19.175-1.348,38.326-2.695,57.973-4.08
		c-2.559-23.781-9.128-44.682-29.851-59.689C408.699,140.369,448.521,140.369,489.052,140.369z M442.732,182.948
		c-18.018,0.048-31.23,13.36-31.178,31.424c0.054,17.938,13.592,31.313,31.541,31.171c18.102-0.143,31.355-13.538,31.203-31.531
		C474.144,195.898,460.937,182.899,442.732,182.948z"/>
	<path fill-rule="evenodd" clip-rule="evenodd" fill="#FFFFFF" d="M177.066,228.699c19.545-20.244,38.688-40.077,57.848-59.928
		c-1.67,8.736-4.258,17.102-4.706,25.577c-1.67,31.769,12.363,55.125,41.781,68.108c15.249,6.717,31.486,11.157,47.189,16.859
		c4.817,1.755,9.606,3.856,13.946,6.543c8.483,5.265,12.454,15.207,10.602,24.885c-1.824,9.579-9.381,17.288-18.964,19.372
		c-18.037,3.894-33.3-4.44-39.343-21.903c-1.966-5.667-2.97-11.683-4.6-18.294c-19.177,1.413-38.532,2.866-58.24,4.32
		c0.218,3.116,0.399,5.634,0.573,8.137c-0.266,0.137-0.53,0.273-0.794,0.41C207.331,278.2,192.304,253.615,177.066,228.699z"/>
	<path fill-rule="evenodd" clip-rule="evenodd" fill="#FFFFFF" d="M173.198,372.315c-29.151,0-57.24,0-85.97,0
		c0-10.36,0.938-20.532-0.217-30.476c-1.79-15.367,2.851-27.04,14.812-36.979c8.571-7.125,15.671-16.023,24.077-24.802
		C141.661,310.792,157.187,341.077,173.198,372.315z"/>
	<path fill-rule="evenodd" clip-rule="evenodd" fill="#FFFFFF" d="M87.665,140.222c25.11,0,49.687,0,75.448,0
		c-25.349,29.582-50.047,58.425-75.448,88.074C87.665,198.37,87.665,169.481,87.665,140.222z"/>
	<path fill-rule="evenodd" clip-rule="evenodd" fill="#000E9C" d="M442.732,182.948c18.204-0.049,31.411,12.951,31.566,31.064
		c0.152,17.994-13.102,31.388-31.203,31.531c-17.949,0.142-31.487-13.233-31.541-31.171
		C411.502,196.308,424.715,182.996,442.732,182.948z"/>
</g>
</svg>
