<?xml version="1.0" encoding="utf-8"?>
<!-- Generator: Adobe Illustrator 16.0.0, SVG Export Plug-In . SVG Version: 6.00 Build 0)  -->
<!DOCTYPE svg PUBLIC "-//W3C//DTD SVG 1.1//EN" "http://www.w3.org/Graphics/SVG/1.1/DTD/svg11.dtd">
<svg version="1.1" id="Calque_1" xmlns="http://www.w3.org/2000/svg" xmlns:xlink="http://www.w3.org/1999/xlink" x="0px" y="0px"
	 width="512px" height="512px" viewBox="0 0 512 512" enable-background="new 0 0 512 512" xml:space="preserve">
<g id="g1069" transform="translate(-199.36,-53.263789)">
	<path id="path922" fill="#4A6FAE" d="M440.832,275.202c0.006-9.908-8.022-17.945-17.923-17.959
		c-9.909-0.006-17.947,8.023-17.959,17.931c-0.006,9.9,8.021,17.947,17.925,17.952c0.012,0,0.019,0,0.034,0
		C432.801,293.121,440.826,285.096,440.832,275.202z"/>
	<path id="path924" fill="#4A6FAE" d="M469.899,275.202c0,9.91,8.024,17.943,17.934,17.943s17.934-8.033,17.934-17.943
		c0-9.908-8.024-17.941-17.934-17.941S469.899,265.294,469.899,275.202L469.899,275.202z"/>
	<path id="path926" fill="#4A6FAE" d="M323.637,341.774c5.322,13.324,12.628,25.755,21.668,36.891
		c27.219,32.248,67.186,50.947,109.372,51.172c38.684-0.175,75.772-15.508,103.285-42.7c14.921-15.662,26.063-34.51,32.595-55.119
		c0.792-2.538-0.619-5.236-3.157-6.044c-1.269-0.396-2.643-0.254-3.805,0.394c-38.816,21.823-87.96,8.051-109.783-30.767
		c-21.824-38.808-8.049-87.969,30.766-109.787c7.12-3.998,14.795-6.897,22.771-8.587c2.613-0.558,4.271-3.117,3.706-5.72
		c-0.266-1.288-1.072-2.411-2.198-3.107c-13.571-8.245-28.433-14.138-43.967-17.419c-4.523-20.13-11.331-31.927-17.466-42.327
		c-7.179-11.571-14.938-22.768-23.24-33.565c-2.854-5.353-7.307-9.681-12.746-12.382c-12.039-6.2-25.735-3.792-30.446,5.391
		c-4.711,9.18,1.283,21.657,13.379,27.871c0.707,0.359,1.416,0.694,2.141,0.992l0,0c2.646,1.127,5.447,1.879,8.306,2.227
		c7.232,2.511,13.891,6.462,19.562,11.61c6.442,5.958,18.49,26.647,19.998,37.41c-3.016-0.178-6.031-0.289-9.04-0.289
		c-4.245,0-8.465,0.192-12.654,0.578c-12.046-15.792-22.381-26.758-32.074-34.841c-10.531-8.742-24.758-18.547-29.953-21.07l0,0
		c-4.717-2.851-10.137-4.324-15.651-4.264c-13.547,0-24.618,8.371-24.618,18.695s11.107,18.705,24.646,18.705
		c1.994-0.004,3.976-0.195,5.931-0.557l0,0h0.092c1.957-0.351,3.879-0.911,5.717-1.668c4.24-1.002,8.647-1.002,12.886,0
		c8.49,2.333,33.453,20.62,31.303,28.716c-13.791,3.435-26.98,8.929-39.133,16.301c-2.27,1.385-2.983,4.349-1.594,6.621
		c0.687,1.125,1.81,1.925,3.102,2.198c43.538,9.279,71.316,52.098,62.038,95.637c-9.279,43.54-52.1,71.315-95.638,62.038
		c-7.929-1.681-15.555-4.557-22.628-8.52c-2.318-1.307-5.252-0.479-6.56,1.83c-0.349,0.631-0.56,1.323-0.604,2.045
		C321.01,334.215,322.236,338.02,323.637,341.774z"/>
	<path id="path928" fill="#4A6FAE" d="M533.92,535.539c-1.395-0.231-8.527-0.4-8.527-0.4c-11.582-1.405-15.047-28.715-15.921-38.553
		c6.781-5.25,12.777-11.452,17.8-18.42c-45.267,21.238-97.573,21.582-143.123,0.956c4.881,6.571,10.639,12.46,17.113,17.464
		c-0.874,9.838-4.348,37.147-15.939,38.553c0,0-7.133,0.169-8.501,0.4c-6.844,1.508-11.787,6.016-11.787,11.333
		c0,6.603,7.691,11.964,17.188,11.964c0,0,20.726,1.76,25.231-2.027c4.497-3.794,6.844-7.117,6.016-23.895
		c-0.83-16.759,14.301-21.34,14.777-22.075c8.555,2.763,17.661,23.525,27.092,23.525c9.441,0,18.564-20.763,27.086-23.525
		c0.51,0.762,15.707,5.325,14.832,22.102c-0.875,16.761,1.508,20.086,6.016,23.883c4.523,3.798,25.24,2.031,25.24,2.031
		c9.479,0,17.178-5.356,17.178-11.974C545.642,541.591,540.754,537.103,533.92,535.539L533.92,535.539z"/>
	<path id="path930" fill="#4A6FAE" d="M569.422,444.862L569.422,444.862h-0.082c-0.252-0.187-0.516-0.345-0.803-0.484
		c-12.31-7.523-18.706-15.399-22.02-21.292c-53.946,40.97-128.505,41.26-182.759,0.699c-3.417,5.809-9.785,13.405-21.611,20.593
		c-0.285,0.146-0.554,0.302-0.817,0.484h-0.076l0,0c-6.111,3.871-7.922,11.972-4.051,18.083c3.877,6.126,11.979,7.939,18.09,4.051
		c2.782-1.762,4.802-4.504,5.652-7.685c1.145-3.51,2.57-8.351,4.636-13.219l3.502,2.037c23.993,15.047,57.39,25.147,85.593,25.147
		c29.991,0,62.699-10.539,87.419-27.205l2.167-1.853c2.123,4.895,3.964,9.922,5.485,15.047c1.858,6.991,9.036,11.167,16.031,9.311
		c7.006-1.874,11.167-9.052,9.309-16.045c-0.843-3.188-2.876-5.954-5.667-7.718V444.862z"/>
</g>
</svg>
