<?xml version="1.0" encoding="utf-8"?>
<!-- Generator: Adobe Illustrator 16.0.0, SVG Export Plug-In . SVG Version: 6.00 Build 0)  -->
<!DOCTYPE svg PUBLIC "-//W3C//DTD SVG 1.1//EN" "http://www.w3.org/Graphics/SVG/1.1/DTD/svg11.dtd">
<svg version="1.1" id="Calque_1" xmlns="http://www.w3.org/2000/svg" xmlns:xlink="http://www.w3.org/1999/xlink" x="0px" y="0px"
	 width="512px" height="512px" viewBox="0 0 512 512" enable-background="new 0 0 512 512" xml:space="preserve">
<path fill="#C70119" d="M374.663,168.306l-11.726,20.651H256.492L93.402,496.92L33.807,506l-2.945-3.026L181.29,188.957H93.402
	l10.716-20.651h85.958c31.255-55.955,56.641-97.781,146.494-138.114C362.938,18.109,403.99,6,441.098,6
	c19.53,0,40.041,4.047,40.041,16.136c0,7.04-9.77,24.199-27.37,24.199c-18.533,0-39.038-10.087-61.498-10.087
	c-59.602,0-77.19,34.277-90.856,63.007l-34.18,69.051L374.663,168.306"/>
</svg>
